Coordinates
version=1
nRows=5
nColumns=63
inDegrees=yes

Units are S.I. units (second, meters, Newtons, ...)
If the header above contains a line with 'inDegrees', this indicates whether rotational values are in degrees (yes) or radians (no).

endheader
time	pelvis_tilt	pelvis_list	pelvis_rotation	pelvis_tx	pelvis_ty	pelvis_tz	hip_flexion_r	hip_adduction_r	hip_rotation_r	knee_angle_r	knee_angle_r_beta	ankle_angle_r	subtalar_angle_r	mtp_angle_r	hip_flexion_l	hip_adduction_l	hip_rotation_l	knee_angle_l	knee_angle_l_beta	ankle_angle_l	subtalar_angle_l	mtp_angle_l	L5_S1_Flex_Ext	L5_S1_Lat_Bending	L5_S1_axial_rotation	L4_L5_Flex_Ext	L4_L5_Lat_Bending	L4_L5_axial_rotation	L3_L4_Flex_Ext	L3_L4_Lat_Bending	L3_L4_axial_rotation	L2_L3_Flex_Ext	L2_L3_Lat_Bending	L2_L3_axial_rotation	L1_L2_Flex_Ext	L1_L2_Lat_Bending	L1_L2_axial_rotation	L1_T12_Flex_Ext	L1_T12_Lat_Bending	L1_T12_axial_rotation	Abs_r3	Abs_r2	Abs_r1	Abs_t1	Abs_t2	neck_flexion	neck_bending	neck_rotation	arm_flex_r	arm_add_r	arm_rot_r	elbow_flex_r	pro_sup_r	wrist_flex_r	wrist_dev_r	arm_flex_l	arm_add_l	arm_rot_l	elbow_flex_l	pro_sup_l	wrist_flex_l	wrist_dev_l
      9.66666667	      6.72437332	     -1.00006142	    175.00757130	      2.54549138	      0.88432137	      0.74807381	     17.77146328	     -3.61168255	     -7.28346570	     26.17826430	      0.45689690	     23.39738142	     -3.80082230	      0.00000000	     10.36590762	     -2.39398357	    -19.62068227	     15.83814966	      0.27642786	     20.28167688	     -3.74528715	      0.00000000	      0.00207350	     -0.26441524	     -0.67376855	      0.00385069	     -0.35167227	     -0.71587909	      0.00340655	     -0.64289921	     -0.71587909	      0.00236980	     -0.64289921	     -0.58954748	      0.00192545	     -0.53919556	     -0.54743695	      0.00118480	     -0.40957921	     -0.50532641	      0.01481079	     -2.99111807	     -3.74729855	      0.00000000	      0.00000000	     -0.00000000	      0.00000000	      0.00000000	      4.55238169	    -12.81202786	     59.36113430	     22.08899708	     53.67133197	      0.00000000	      5.00000014	    -13.92648003	     -8.55151769	      9.13661810	     27.03409132	     54.97157836	      0.00000000	      5.00000014
      9.70000000	      6.82372648	     -0.68514673	    175.44480217	      2.54530887	      0.88439005	      0.74816985	     17.62348648	     -3.34757465	     -7.68744442	     25.85051519	      0.45117660	     23.23450990	     -3.73943044	      0.00000000	     10.57063795	     -2.68475151	    -19.03951195	     15.99288075	      0.27912843	     20.20007447	     -4.23741431	      0.00000000	      0.00168060	     -0.23688179	     -0.80179231	      0.00312104	     -0.31505278	     -0.85190433	      0.00276106	     -0.57595438	     -0.85190433	      0.00192076	     -0.57595438	     -0.70156827	      0.00156061	     -0.48304935	     -0.65145625	      0.00096030	     -0.36692989	     -0.60134423	      0.01200437	     -2.67965419	     -4.45932827	      0.00000000	      0.00000000	     -0.00000000	      0.00000000	      0.00000000	      4.77955341	    -12.71359451	     59.66806000	     21.79878857	     53.46585351	      0.00000000	      5.00000014	    -14.23375016	     -8.29317592	      7.97428201	     27.22986454	     54.42021937	      0.00000000	      5.00000014
      9.73333333	      6.81518938	     -0.66124348	    175.77518246	      2.54496713	      0.88464915	      0.74855435	     17.45703841	     -3.69461664	     -9.23257662	     25.80105451	      0.45031335	     23.60848425	     -1.83200946	      0.00000000	     10.43724333	     -2.30017368	    -16.21669010	     15.49346040	      0.27041190	     19.13408810	     -7.42739713	      0.00000000	      0.00105242	     -0.24161862	     -0.91688851	      0.00195445	     -0.32135277	     -0.97419405	      0.00172902	     -0.58747152	     -0.97419405	      0.00120281	     -0.58747152	     -0.80227745	      0.00097728	     -0.49270870	     -0.74497192	      0.00060135	     -0.37426725	     -0.68766639	      0.00751733	     -2.73323819	     -5.09945885	      0.00000000	      0.00000000	     -0.00000000	      0.00000000	      0.00000000	      6.14460694	    -12.87326230	     66.65050808	     21.27462788	     55.97590123	      0.00000000	      5.00000014	    -15.14584955	     -6.66570456	     -0.22004896	     28.17587785	     54.06416534	      0.00000000	      5.00000014
      9.76666667	      6.77401164	     -0.64832595	    175.71516435	      2.54470204	      0.88505285	      0.74806673	     17.33356463	     -3.62976404	     -9.26907724	     25.70756533	      0.44868166	     23.57691371	     -1.78577038	      0.00000000	     10.29774781	     -2.38323257	    -15.78328600	     15.46810369	      0.26996934	     19.01884064	     -7.10638394	      0.00000000	     -0.00047827	     -0.23989900	     -0.88765830	     -0.00088819	     -0.31906567	     -0.94313694	     -0.00078574	     -0.58329043	     -0.94313694	     -0.00054661	     -0.58329043	     -0.77670101	     -0.00044412	     -0.48920204	     -0.72122237	     -0.00027328	     -0.37160355	     -0.66574372	     -0.00341621	     -2.71378547	     -4.93688915	      0.00000000	      0.00000000	     -0.00000000	      0.00000000	      0.00000000	      6.08740899	    -12.81021125	     66.64072765	     21.21082517	     55.96246668	      0.00000000	      5.00000014	    -15.14208338	     -6.73259805	     -0.24489124	     28.12917740	     54.06253945	      0.00000000	      5.00000014
      9.80000000	      6.64512600	     -0.63948574	    176.02174653	      2.54394353	      0.88587554	      0.74779755	     16.80920841	     -3.57112749	     -9.43441951	     25.16433296	      0.43920046	     23.37517054	     -1.95790775	      0.00000000	      9.75625191	     -1.67166978	     -9.55594652	     14.42801603	      0.25181638	     16.45169329	    -13.77982623	      0.00000000	      0.00094447	     -0.23819394	     -0.89485283	      0.00175397	     -0.31679794	     -0.95078113	      0.00155166	     -0.57914475	     -0.95078113	      0.00107943	     -0.57914475	     -0.78299623	      0.00087703	     -0.48572509	     -0.72706792	      0.00053967	     -0.36896242	     -0.67113962	      0.00674622	     -2.69449752	     -4.97690299	      0.00000000	      0.00000000	     -0.00000000	      0.00000000	      0.00000000	      5.71200884	    -12.55083447	     65.38830379	     20.75930744	     55.92728559	      0.00000000	      5.00000014	    -14.89287732	     -6.94918641	      0.59482447	     27.70727914	     54.88296738	      0.00000000	      5.00000014
